<?xml version="1.0" encoding="utf-8"?>
<!-- Generator: Adobe Illustrator 25.0.1, SVG Export Plug-In . SVG Version: 6.00 Build 0)  -->
<svg version="1.0" id="katman_1" xmlns="http://www.w3.org/2000/svg" xmlns:xlink="http://www.w3.org/1999/xlink" x="0px" y="0px"
	 viewBox="0 0 560 400" style="enable-background:new 0 0 560 400;" xml:space="preserve">
<style type="text/css">
	.st0{fill:#76B900;}
</style>
<g transform="matrix(4.43785 0 0 4.43785 43.005 154.825)">
	<path d="M65.3,3.9v13.3H69V3.9L65.3,3.9z M35.7,3.9v13.3h3.8V6.8l3,0c1,0,1.6,0.2,2.1,0.7c0.6,0.6,0.8,1.7,0.8,3.5v6.1h3.7V9.8
		c0-5.3-3.4-6-6.6-6L35.7,3.9z M71.3,3.9v13.3h6.1c3.3,0,4.3-0.5,5.5-1.7c0.8-0.8,1.3-2.7,1.3-4.8c0-1.9-0.4-3.5-1.2-4.6
		c-1.4-1.9-3.4-2.2-6.4-2.2L71.3,3.9z M75,6.8h1.6c2.3,0,3.9,1,3.9,3.8s-1.5,3.8-3.9,3.8H75V6.8z M59.8,3.9l-3.1,10.6l-3-10.6h-4.1
		l4.3,13.3h5.4l4.3-13.3L59.8,3.9z M86,17.2h3.8V3.9H86V17.2z M96.5,3.9l-5.2,13.3h3.7l0.8-2.4h6.2l0.8,2.3h4l-5.3-13.3L96.5,3.9z
		 M98.9,6.3l2.3,6.2h-4.6L98.9,6.3z"/>
	<path class="st0" d="M11.4,6.1V4.3c0.2,0,0.4,0,0.5,0c5-0.2,8.3,4.3,8.3,4.3s-3.5,4.9-7.3,4.9c-0.5,0-1-0.1-1.5-0.2V7.7
		c2,0.2,2.3,1.1,3.5,3l2.6-2.2c0,0-1.9-2.5-5.1-2.5C12.1,6,11.8,6.1,11.4,6.1 M11.4,0v2.7l0.5,0c7-0.2,11.5,5.7,11.5,5.7
		s-5.2,6.3-10.6,6.3c-0.5,0-0.9,0-1.4-0.1v1.7c0.4,0,0.8,0.1,1.2,0.1c5.1,0,8.7-2.6,12.3-5.6c0.6,0.5,3,1.6,3.5,2.1
		C25,15.7,17.1,18,12.7,18c-0.4,0-0.8,0-1.2-0.1v2.4h19.2V0L11.4,0z M11.4,13.2v1.4c-4.7-0.8-6-5.7-6-5.7s2.2-2.5,6-2.9v1.6h0
		c-2-0.2-3.5,1.6-3.5,1.6S8.8,12.3,11.4,13.2 M3.1,8.8c0,0,2.8-4.1,8.3-4.5V2.8C5.3,3.3,0,8.5,0,8.5s3,8.7,11.4,9.5v-1.6
		C5.2,15.6,3.1,8.8,3.1,8.8z"/>
</g>
</svg>
